<svg aria-hidden="true" style="position:absolute;width:0;height:0;overflow:hidden" xmlns="http://www.w3.org/2000/svg"><defs><symbol id="icon-bomb" viewBox="0 0 28 28"><path d="M8.922 9.203c-.203-.516-.781-.75-1.297-.547-2.25.906-4.062 2.719-4.969 4.969-.203.516.031 1.094.547 1.297.125.047.25.078.375.078.406 0 .766-.234.938-.625.703-1.75 2.109-3.156 3.859-3.859.516-.219.766-.797.547-1.313zm14.719-5.562.719.719-3.813 3.797 1.062 1.062c.391.391.391 1.031 0 1.422l-1 1C21.484 13.219 22 15.047 22 17c0 6.078-4.922 11-11 11S0 23.078 0 17 4.922 6 11 6c1.953 0 3.781.516 5.359 1.391l1-1c.391-.391 1.031-.391 1.422 0l1.062 1.062zm.125-.875c-.094.094-.219.156-.344.156-.141 0-.266-.063-.359-.156L21.641 1.36c-.187-.203-.187-.516 0-.719.203-.187.516-.187.719 0l1.406 1.422c.203.187.203.516 0 .703zm3.593 3.593c-.109.094-.234.141-.359.141s-.25-.047-.359-.141l-1.406-1.422c-.203-.187-.203-.516 0-.703.187-.203.516-.203.703 0L27.36 5.64c.187.203.187.516 0 .719zM28 3.5c0 .281-.219.5-.5.5H26c-.281 0-.5-.219-.5-.5s.219-.5.5-.5h1.5c.281 0 .5.219.5.5zm-3-3V2c0 .281-.219.5-.5.5S24 2.281 24 2V.5c0-.281.219-.5.5-.5s.5.219.5.5zm2.359.859-1.422 1.406c-.094.094-.219.156-.344.156-.141 0-.266-.063-.359-.156-.203-.187-.203-.516 0-.703L26.64.64c.203-.187.516-.187.719 0 .187.203.187.516 0 .719z"/></symbol><symbol id="icon-flag" viewBox="0 0 29 28"><path d="M5 4c0 .719-.391 1.359-1 1.719V25.5c0 .266-.234.5-.5.5h-1c-.266 0-.5-.234-.5-.5V5.719c-.609-.359-1-1-1-1.719 0-1.109.891-2 2-2s2 .891 2 2zm23 1v11.922c0 .578-.359.797-.812 1.031-1.766.953-3.719 1.813-5.766 1.813-2.875 0-4.25-2.188-7.656-2.188-2.484 0-5.094 1.125-7.25 2.281-.172.094-.328.141-.516.141-.547 0-1-.453-1-1V7.406c0-.375.187-.641.484-.859.375-.25.828-.469 1.234-.672C8.687 4.875 11.077 4 13.296 4c2.453 0 4.375.812 6.547 1.828.438.219.891.297 1.375.297C23.671 6.125 26.312 4 26.999 4c.547 0 1 .453 1 1z"/></symbol></defs></svg>